G04 EAGLE Gerber RS-274X export*
G75*
%MOMM*%
%FSLAX34Y34*%
%LPD*%
%IN*%
%IPPOS*%
%AMOC8*
5,1,8,0,0,1.08239X$1,22.5*%
G01*
%ADD10C,0.254000*%


D10*
X0Y-6350D02*
X25400Y-25400D01*
X1765300Y-25400D01*
X1885950Y101600D01*
X1885950Y552450D01*
X1816100Y622300D01*
X171450Y622300D01*
X0Y444500D01*
X0Y-6350D01*
X176750Y532811D02*
X176673Y531635D01*
X176519Y530466D01*
X176289Y529310D01*
X175984Y528172D01*
X175605Y527056D01*
X175154Y525967D01*
X174633Y524910D01*
X174044Y523890D01*
X173389Y522910D01*
X172672Y521975D01*
X171895Y521089D01*
X171061Y520255D01*
X170175Y519478D01*
X169240Y518761D01*
X168260Y518106D01*
X167240Y517517D01*
X166183Y516996D01*
X165094Y516545D01*
X163978Y516166D01*
X162840Y515861D01*
X161684Y515631D01*
X160515Y515477D01*
X159339Y515400D01*
X158161Y515400D01*
X156985Y515477D01*
X155816Y515631D01*
X154660Y515861D01*
X153522Y516166D01*
X152406Y516545D01*
X151317Y516996D01*
X150260Y517517D01*
X149240Y518106D01*
X148260Y518761D01*
X147325Y519478D01*
X146439Y520255D01*
X145605Y521089D01*
X144828Y521975D01*
X144111Y522910D01*
X143456Y523890D01*
X142867Y524910D01*
X142346Y525967D01*
X141895Y527056D01*
X141516Y528172D01*
X141211Y529310D01*
X140981Y530466D01*
X140827Y531635D01*
X140750Y532811D01*
X140750Y533989D01*
X140827Y535165D01*
X140981Y536334D01*
X141211Y537490D01*
X141516Y538628D01*
X141895Y539744D01*
X142346Y540833D01*
X142867Y541890D01*
X143456Y542910D01*
X144111Y543890D01*
X144828Y544825D01*
X145605Y545711D01*
X146439Y546545D01*
X147325Y547322D01*
X148260Y548039D01*
X149240Y548694D01*
X150260Y549283D01*
X151317Y549804D01*
X152406Y550255D01*
X153522Y550634D01*
X154660Y550939D01*
X155816Y551169D01*
X156985Y551323D01*
X158161Y551400D01*
X159339Y551400D01*
X160515Y551323D01*
X161684Y551169D01*
X162840Y550939D01*
X163978Y550634D01*
X165094Y550255D01*
X166183Y549804D01*
X167240Y549283D01*
X168260Y548694D01*
X169240Y548039D01*
X170175Y547322D01*
X171061Y546545D01*
X171895Y545711D01*
X172672Y544825D01*
X173389Y543890D01*
X174044Y542910D01*
X174633Y541890D01*
X175154Y540833D01*
X175605Y539744D01*
X175984Y538628D01*
X176289Y537490D01*
X176519Y536334D01*
X176673Y535165D01*
X176750Y533989D01*
X176750Y532811D01*
M02*
