G04 EAGLE Gerber RS-274X export*
G75*
%MOMM*%
%FSLAX34Y34*%
%LPD*%
%INSoldermask Bottom*%
%IPPOS*%
%AMOC8*
5,1,8,0,0,1.08239X$1,22.5*%
G01*
%ADD10C,4.521200*%
%ADD11C,2.133600*%
%ADD12R,2.133600X2.133600*%
%ADD13C,2.082800*%
%ADD14C,1.828800*%
%ADD15C,1.524000*%
%ADD16P,1.649562X8X22.500000*%
%ADD17C,1.611200*%
%ADD18R,2.082800X2.082800*%
%ADD19C,3.803200*%
%ADD20C,0.959600*%

G36*
X153660Y408997D02*
X153660Y408997D01*
X153725Y408993D01*
X155556Y409153D01*
X155602Y409166D01*
X155678Y409176D01*
X157442Y409690D01*
X157486Y409711D01*
X157558Y409736D01*
X159188Y410585D01*
X159226Y410614D01*
X159292Y410653D01*
X160725Y411803D01*
X160757Y411839D01*
X160814Y411890D01*
X161995Y413298D01*
X162019Y413339D01*
X162065Y413400D01*
X162262Y413758D01*
X162262Y413759D01*
X162949Y415012D01*
X162964Y415057D01*
X162998Y415126D01*
X163550Y416879D01*
X163556Y416926D01*
X163576Y417000D01*
X163776Y418827D01*
X163772Y418873D01*
X163778Y418942D01*
X163655Y420618D01*
X163644Y420661D01*
X163638Y420727D01*
X163227Y422357D01*
X163208Y422397D01*
X163190Y422461D01*
X162502Y423994D01*
X162477Y424031D01*
X162448Y424091D01*
X161504Y425481D01*
X161473Y425513D01*
X161435Y425567D01*
X160264Y426773D01*
X160228Y426799D01*
X160180Y426845D01*
X158818Y427829D01*
X158777Y427848D01*
X158723Y427885D01*
X157210Y428618D01*
X157167Y428630D01*
X157107Y428657D01*
X155490Y429115D01*
X155445Y429120D01*
X155381Y429136D01*
X153709Y429307D01*
X153661Y429303D01*
X153582Y429307D01*
X151910Y429141D01*
X151867Y429129D01*
X151802Y429120D01*
X150184Y428666D01*
X150143Y428647D01*
X150080Y428627D01*
X148566Y427899D01*
X148530Y427873D01*
X148471Y427843D01*
X147106Y426862D01*
X147075Y426830D01*
X147022Y426790D01*
X145848Y425588D01*
X145823Y425551D01*
X145778Y425503D01*
X144831Y424115D01*
X144813Y424074D01*
X144777Y424018D01*
X144085Y422487D01*
X144074Y422444D01*
X144048Y422383D01*
X143633Y420754D01*
X143630Y420710D01*
X143615Y420645D01*
X143489Y418970D01*
X143493Y418923D01*
X143491Y418851D01*
X143696Y417016D01*
X143710Y416969D01*
X143722Y416894D01*
X144282Y415133D01*
X144305Y415091D01*
X144331Y415019D01*
X145224Y413402D01*
X145254Y413364D01*
X145294Y413299D01*
X146485Y411887D01*
X146522Y411856D01*
X146574Y411800D01*
X148018Y410647D01*
X148060Y410625D01*
X148122Y410580D01*
X149763Y409731D01*
X149809Y409717D01*
X149878Y409685D01*
X151653Y409172D01*
X151701Y409167D01*
X151776Y409150D01*
X153616Y408993D01*
X153660Y408997D01*
G37*
G36*
X125669Y408997D02*
X125669Y408997D01*
X125734Y408993D01*
X127565Y409153D01*
X127611Y409166D01*
X127687Y409176D01*
X129451Y409690D01*
X129495Y409711D01*
X129567Y409736D01*
X131197Y410585D01*
X131235Y410614D01*
X131301Y410653D01*
X132734Y411803D01*
X132766Y411839D01*
X132823Y411890D01*
X134004Y413298D01*
X134028Y413339D01*
X134074Y413400D01*
X134271Y413758D01*
X134271Y413759D01*
X134958Y415012D01*
X134973Y415057D01*
X135007Y415126D01*
X135559Y416879D01*
X135565Y416926D01*
X135585Y417000D01*
X135785Y418827D01*
X135781Y418873D01*
X135787Y418942D01*
X135664Y420618D01*
X135653Y420661D01*
X135647Y420727D01*
X135236Y422357D01*
X135217Y422397D01*
X135199Y422461D01*
X134511Y423994D01*
X134486Y424031D01*
X134457Y424091D01*
X133513Y425481D01*
X133482Y425513D01*
X133444Y425567D01*
X132273Y426773D01*
X132237Y426799D01*
X132189Y426845D01*
X130827Y427829D01*
X130786Y427848D01*
X130732Y427885D01*
X129219Y428618D01*
X129176Y428630D01*
X129116Y428657D01*
X127499Y429115D01*
X127454Y429120D01*
X127390Y429136D01*
X125718Y429307D01*
X125670Y429303D01*
X125591Y429307D01*
X123919Y429141D01*
X123876Y429129D01*
X123811Y429120D01*
X122193Y428666D01*
X122152Y428647D01*
X122089Y428627D01*
X120575Y427899D01*
X120539Y427873D01*
X120480Y427843D01*
X119115Y426862D01*
X119084Y426830D01*
X119031Y426790D01*
X117857Y425588D01*
X117832Y425551D01*
X117787Y425503D01*
X116840Y424115D01*
X116822Y424074D01*
X116786Y424018D01*
X116094Y422487D01*
X116083Y422444D01*
X116057Y422383D01*
X115642Y420754D01*
X115639Y420710D01*
X115624Y420645D01*
X115498Y418970D01*
X115502Y418923D01*
X115500Y418851D01*
X115705Y417016D01*
X115719Y416969D01*
X115731Y416894D01*
X116291Y415133D01*
X116314Y415091D01*
X116340Y415019D01*
X117233Y413402D01*
X117263Y413364D01*
X117303Y413299D01*
X118494Y411887D01*
X118531Y411856D01*
X118583Y411800D01*
X120027Y410647D01*
X120069Y410625D01*
X120131Y410580D01*
X121772Y409731D01*
X121818Y409717D01*
X121887Y409685D01*
X123662Y409172D01*
X123710Y409167D01*
X123785Y409150D01*
X125625Y408993D01*
X125669Y408997D01*
G37*
G36*
X153660Y370897D02*
X153660Y370897D01*
X153725Y370893D01*
X155556Y371053D01*
X155602Y371066D01*
X155678Y371076D01*
X157442Y371590D01*
X157486Y371611D01*
X157558Y371636D01*
X159188Y372485D01*
X159226Y372514D01*
X159292Y372553D01*
X160725Y373703D01*
X160757Y373739D01*
X160814Y373790D01*
X161995Y375198D01*
X162019Y375239D01*
X162065Y375300D01*
X162262Y375658D01*
X162262Y375659D01*
X162949Y376912D01*
X162964Y376957D01*
X162998Y377026D01*
X163550Y378779D01*
X163556Y378826D01*
X163576Y378900D01*
X163776Y380727D01*
X163772Y380773D01*
X163778Y380842D01*
X163655Y382518D01*
X163644Y382561D01*
X163638Y382627D01*
X163227Y384257D01*
X163208Y384297D01*
X163190Y384361D01*
X162502Y385894D01*
X162477Y385931D01*
X162448Y385991D01*
X161504Y387381D01*
X161473Y387413D01*
X161435Y387467D01*
X160264Y388673D01*
X160228Y388699D01*
X160180Y388745D01*
X158818Y389729D01*
X158777Y389748D01*
X158723Y389785D01*
X157210Y390518D01*
X157167Y390530D01*
X157107Y390557D01*
X155490Y391015D01*
X155445Y391020D01*
X155381Y391036D01*
X153709Y391207D01*
X153661Y391203D01*
X153582Y391207D01*
X151910Y391041D01*
X151867Y391029D01*
X151802Y391020D01*
X150184Y390566D01*
X150143Y390547D01*
X150080Y390527D01*
X148566Y389799D01*
X148530Y389773D01*
X148471Y389743D01*
X147106Y388762D01*
X147075Y388730D01*
X147022Y388690D01*
X145848Y387488D01*
X145823Y387451D01*
X145778Y387403D01*
X144831Y386015D01*
X144813Y385974D01*
X144777Y385918D01*
X144085Y384387D01*
X144074Y384344D01*
X144048Y384283D01*
X143633Y382654D01*
X143630Y382610D01*
X143615Y382545D01*
X143489Y380870D01*
X143493Y380823D01*
X143491Y380751D01*
X143696Y378916D01*
X143710Y378869D01*
X143722Y378794D01*
X144282Y377033D01*
X144305Y376991D01*
X144331Y376919D01*
X145224Y375302D01*
X145254Y375264D01*
X145294Y375199D01*
X146485Y373787D01*
X146522Y373756D01*
X146574Y373700D01*
X148018Y372547D01*
X148060Y372525D01*
X148122Y372480D01*
X149763Y371631D01*
X149809Y371617D01*
X149878Y371585D01*
X151653Y371072D01*
X151701Y371067D01*
X151776Y371050D01*
X153616Y370893D01*
X153660Y370897D01*
G37*
G36*
X125669Y370897D02*
X125669Y370897D01*
X125734Y370893D01*
X127565Y371053D01*
X127611Y371066D01*
X127687Y371076D01*
X129451Y371590D01*
X129495Y371611D01*
X129567Y371636D01*
X131197Y372485D01*
X131235Y372514D01*
X131301Y372553D01*
X132734Y373703D01*
X132766Y373739D01*
X132823Y373790D01*
X134004Y375198D01*
X134028Y375239D01*
X134074Y375300D01*
X134271Y375658D01*
X134271Y375659D01*
X134958Y376912D01*
X134973Y376957D01*
X135007Y377026D01*
X135559Y378779D01*
X135565Y378826D01*
X135585Y378900D01*
X135785Y380727D01*
X135781Y380773D01*
X135787Y380842D01*
X135664Y382518D01*
X135653Y382561D01*
X135647Y382627D01*
X135236Y384257D01*
X135217Y384297D01*
X135199Y384361D01*
X134511Y385894D01*
X134486Y385931D01*
X134457Y385991D01*
X133513Y387381D01*
X133482Y387413D01*
X133444Y387467D01*
X132273Y388673D01*
X132237Y388699D01*
X132189Y388745D01*
X130827Y389729D01*
X130786Y389748D01*
X130732Y389785D01*
X129219Y390518D01*
X129176Y390530D01*
X129116Y390557D01*
X127499Y391015D01*
X127454Y391020D01*
X127390Y391036D01*
X125718Y391207D01*
X125670Y391203D01*
X125591Y391207D01*
X123919Y391041D01*
X123876Y391029D01*
X123811Y391020D01*
X122193Y390566D01*
X122152Y390547D01*
X122089Y390527D01*
X120575Y389799D01*
X120539Y389773D01*
X120480Y389743D01*
X119115Y388762D01*
X119084Y388730D01*
X119031Y388690D01*
X117857Y387488D01*
X117832Y387451D01*
X117787Y387403D01*
X116840Y386015D01*
X116822Y385974D01*
X116786Y385918D01*
X116094Y384387D01*
X116083Y384344D01*
X116057Y384283D01*
X115642Y382654D01*
X115639Y382610D01*
X115624Y382545D01*
X115498Y380870D01*
X115502Y380823D01*
X115500Y380751D01*
X115705Y378916D01*
X115719Y378869D01*
X115731Y378794D01*
X116291Y377033D01*
X116314Y376991D01*
X116340Y376919D01*
X117233Y375302D01*
X117263Y375264D01*
X117303Y375199D01*
X118494Y373787D01*
X118531Y373756D01*
X118583Y373700D01*
X120027Y372547D01*
X120069Y372525D01*
X120131Y372480D01*
X121772Y371631D01*
X121818Y371617D01*
X121887Y371585D01*
X123662Y371072D01*
X123710Y371067D01*
X123785Y371050D01*
X125625Y370893D01*
X125669Y370897D01*
G37*
D10*
X50800Y137000D03*
X50800Y77000D03*
X97800Y107000D03*
D11*
X127400Y50800D03*
D12*
X177400Y50800D03*
D11*
X127400Y298450D03*
D12*
X177400Y298450D03*
D13*
X152400Y139700D03*
X152400Y165100D03*
X152400Y190500D03*
X152400Y215900D03*
X254000Y292100D03*
X254000Y571500D03*
X69850Y381000D03*
X69850Y406400D03*
X69850Y431800D03*
X69850Y457200D03*
X25400Y336550D03*
X101600Y336550D03*
X25400Y361950D03*
X25400Y438150D03*
D14*
X292100Y63500D03*
X292100Y88900D03*
X292100Y114300D03*
X292100Y139700D03*
X292100Y165100D03*
X292100Y190500D03*
X292100Y215900D03*
X292100Y241300D03*
X215900Y241300D03*
X215900Y215900D03*
X215900Y190500D03*
X215900Y165100D03*
X215900Y139700D03*
X215900Y114300D03*
X215900Y88900D03*
X215900Y63500D03*
X292100Y342900D03*
X292100Y368300D03*
X292100Y393700D03*
X292100Y419100D03*
X292100Y444500D03*
X292100Y469900D03*
X292100Y495300D03*
X292100Y520700D03*
X215900Y520700D03*
X215900Y495300D03*
X215900Y469900D03*
X215900Y444500D03*
X215900Y419100D03*
X215900Y393700D03*
X215900Y368300D03*
X215900Y342900D03*
D13*
X25400Y190500D03*
X25400Y215900D03*
X50800Y190500D03*
X50800Y215900D03*
X76200Y190500D03*
X76200Y215900D03*
X25400Y273050D03*
X25400Y298450D03*
X50800Y273050D03*
X50800Y298450D03*
X76200Y273050D03*
X76200Y298450D03*
D15*
X1695450Y456946D02*
X1695450Y470154D01*
X1746250Y470154D02*
X1746250Y456946D01*
X1720850Y456946D02*
X1720850Y470154D01*
D16*
X1739900Y222250D03*
X1727200Y241300D03*
X1714500Y222250D03*
X1816100Y222250D03*
X1803400Y241300D03*
X1790700Y222250D03*
D13*
X1771650Y590550D03*
X1797050Y590550D03*
X1708150Y590550D03*
X1733550Y590550D03*
D17*
X1778000Y330200D03*
X1854200Y330200D03*
X1854200Y222250D03*
X1854200Y298450D03*
D13*
X1714500Y44450D03*
X1708150Y514350D03*
X1733550Y514350D03*
D15*
X1701800Y292354D02*
X1701800Y279146D01*
X1752600Y279146D02*
X1752600Y292354D01*
X1727200Y292354D02*
X1727200Y279146D01*
X1778000Y279146D02*
X1778000Y292354D01*
X1828800Y292354D02*
X1828800Y279146D01*
X1803400Y279146D02*
X1803400Y292354D01*
D13*
X1752600Y44450D03*
D16*
X1708150Y400050D03*
X1720850Y419100D03*
X1733550Y400050D03*
D13*
X1701800Y158750D03*
X1778000Y158750D03*
X1854200Y184150D03*
X1854200Y107950D03*
X1816100Y107950D03*
X1816100Y184150D03*
X1701800Y120650D03*
X1778000Y120650D03*
D18*
X1797050Y514200D03*
D13*
X1822450Y539200D03*
X1847850Y514200D03*
D15*
X1511300Y470154D02*
X1511300Y456946D01*
X1562100Y456946D02*
X1562100Y470154D01*
X1536700Y470154D02*
X1536700Y456946D01*
D16*
X1555750Y222250D03*
X1543050Y241300D03*
X1530350Y222250D03*
X1631950Y222250D03*
X1619250Y241300D03*
X1606550Y222250D03*
D13*
X1593850Y590550D03*
X1619250Y590550D03*
X1530350Y590550D03*
X1555750Y590550D03*
D17*
X1593850Y330200D03*
X1670050Y330200D03*
X1670050Y222250D03*
X1670050Y298450D03*
D13*
X1530350Y44450D03*
X1517650Y527050D03*
X1543050Y527050D03*
D15*
X1517650Y292354D02*
X1517650Y279146D01*
X1568450Y279146D02*
X1568450Y292354D01*
X1543050Y292354D02*
X1543050Y279146D01*
X1593850Y279146D02*
X1593850Y292354D01*
X1644650Y292354D02*
X1644650Y279146D01*
X1619250Y279146D02*
X1619250Y292354D01*
D13*
X1568450Y44450D03*
D16*
X1524000Y400050D03*
X1536700Y419100D03*
X1549400Y400050D03*
D13*
X1517650Y158750D03*
X1593850Y158750D03*
X1670050Y184150D03*
X1670050Y107950D03*
X1631950Y107950D03*
X1631950Y184150D03*
X1517650Y120650D03*
X1593850Y120650D03*
D18*
X1606550Y514200D03*
D13*
X1631950Y539200D03*
X1657350Y514200D03*
D15*
X1320800Y470154D02*
X1320800Y456946D01*
X1371600Y456946D02*
X1371600Y470154D01*
X1346200Y470154D02*
X1346200Y456946D01*
D16*
X1371600Y222250D03*
X1358900Y241300D03*
X1346200Y222250D03*
X1447800Y222250D03*
X1435100Y241300D03*
X1422400Y222250D03*
D13*
X1409700Y590550D03*
X1435100Y590550D03*
X1346200Y590550D03*
X1371600Y590550D03*
D17*
X1416050Y336550D03*
X1492250Y336550D03*
X1485900Y222250D03*
X1485900Y298450D03*
D13*
X1346200Y44450D03*
X1333500Y514350D03*
X1358900Y514350D03*
D15*
X1333500Y292354D02*
X1333500Y279146D01*
X1384300Y279146D02*
X1384300Y292354D01*
X1358900Y292354D02*
X1358900Y279146D01*
X1409700Y279146D02*
X1409700Y292354D01*
X1460500Y292354D02*
X1460500Y279146D01*
X1435100Y279146D02*
X1435100Y292354D01*
D13*
X1384300Y44450D03*
D16*
X1333500Y400050D03*
X1346200Y419100D03*
X1358900Y400050D03*
D13*
X1333500Y158750D03*
X1409700Y158750D03*
X1485900Y184150D03*
X1485900Y107950D03*
X1447800Y107950D03*
X1447800Y184150D03*
X1333500Y120650D03*
X1409700Y120650D03*
D18*
X1416050Y514200D03*
D13*
X1441450Y539200D03*
X1466850Y514200D03*
D15*
X1130300Y470154D02*
X1130300Y456946D01*
X1181100Y456946D02*
X1181100Y470154D01*
X1155700Y470154D02*
X1155700Y456946D01*
D16*
X1174750Y222250D03*
X1162050Y241300D03*
X1149350Y222250D03*
X1250950Y222250D03*
X1238250Y241300D03*
X1225550Y222250D03*
D13*
X1212850Y590550D03*
X1238250Y590550D03*
X1149350Y590550D03*
X1174750Y590550D03*
D17*
X1219200Y336550D03*
X1295400Y336550D03*
X1289050Y222250D03*
X1289050Y298450D03*
D13*
X1149350Y44450D03*
X1136650Y520700D03*
X1162050Y520700D03*
D15*
X1136650Y292354D02*
X1136650Y279146D01*
X1187450Y279146D02*
X1187450Y292354D01*
X1162050Y292354D02*
X1162050Y279146D01*
X1212850Y279146D02*
X1212850Y292354D01*
X1263650Y292354D02*
X1263650Y279146D01*
X1238250Y279146D02*
X1238250Y292354D01*
D13*
X1187450Y44450D03*
D16*
X1143000Y406400D03*
X1155700Y425450D03*
X1168400Y406400D03*
D13*
X1136650Y158750D03*
X1212850Y158750D03*
X1289050Y184150D03*
X1289050Y107950D03*
X1250950Y107950D03*
X1250950Y184150D03*
X1136650Y120650D03*
X1212850Y120650D03*
D18*
X1219200Y514200D03*
D13*
X1244600Y539200D03*
X1270000Y514200D03*
D15*
X939800Y470154D02*
X939800Y456946D01*
X990600Y456946D02*
X990600Y470154D01*
X965200Y470154D02*
X965200Y456946D01*
D16*
X984250Y222250D03*
X971550Y241300D03*
X958850Y222250D03*
X1060450Y222250D03*
X1047750Y241300D03*
X1035050Y222250D03*
D13*
X1022350Y590550D03*
X1047750Y590550D03*
X958850Y590550D03*
X984250Y590550D03*
D17*
X1028700Y336550D03*
X1104900Y336550D03*
X1098550Y222250D03*
X1098550Y298450D03*
D13*
X958850Y44450D03*
X946150Y520700D03*
X971550Y520700D03*
D15*
X946150Y292354D02*
X946150Y279146D01*
X996950Y279146D02*
X996950Y292354D01*
X971550Y292354D02*
X971550Y279146D01*
X1022350Y279146D02*
X1022350Y292354D01*
X1073150Y292354D02*
X1073150Y279146D01*
X1047750Y279146D02*
X1047750Y292354D01*
D13*
X996950Y44450D03*
D16*
X952500Y400050D03*
X965200Y419100D03*
X977900Y400050D03*
D13*
X946150Y158750D03*
X1022350Y158750D03*
X1098550Y184150D03*
X1098550Y107950D03*
X1060450Y107950D03*
X1060450Y184150D03*
X946150Y120650D03*
X1022350Y120650D03*
D18*
X1028700Y514200D03*
D13*
X1054100Y539200D03*
X1079500Y514200D03*
D15*
X749300Y476504D02*
X749300Y463296D01*
X800100Y463296D02*
X800100Y476504D01*
X774700Y476504D02*
X774700Y463296D01*
D16*
X800100Y222250D03*
X787400Y241300D03*
X774700Y222250D03*
X876300Y222250D03*
X863600Y241300D03*
X850900Y222250D03*
D13*
X838200Y590550D03*
X863600Y590550D03*
X774700Y590550D03*
X800100Y590550D03*
D17*
X844550Y336550D03*
X920750Y336550D03*
X914400Y222250D03*
X914400Y298450D03*
D13*
X774700Y44450D03*
X755650Y527050D03*
X781050Y527050D03*
D15*
X762000Y292354D02*
X762000Y279146D01*
X812800Y279146D02*
X812800Y292354D01*
X787400Y292354D02*
X787400Y279146D01*
X838200Y279146D02*
X838200Y292354D01*
X889000Y292354D02*
X889000Y279146D01*
X863600Y279146D02*
X863600Y292354D01*
D13*
X812800Y44450D03*
D16*
X762000Y406400D03*
X774700Y425450D03*
X787400Y406400D03*
D13*
X762000Y158750D03*
X838200Y158750D03*
X914400Y184150D03*
X914400Y107950D03*
X876300Y107950D03*
X876300Y184150D03*
X762000Y120650D03*
X838200Y120650D03*
D18*
X838200Y514200D03*
D13*
X863600Y539200D03*
X889000Y514200D03*
D15*
X552450Y476504D02*
X552450Y463296D01*
X603250Y463296D02*
X603250Y476504D01*
X577850Y476504D02*
X577850Y463296D01*
D16*
X615950Y222250D03*
X603250Y241300D03*
X590550Y222250D03*
X692150Y222250D03*
X679450Y241300D03*
X666750Y222250D03*
D13*
X654050Y590550D03*
X679450Y590550D03*
X590550Y590550D03*
X615950Y590550D03*
D17*
X660400Y336550D03*
X736600Y336550D03*
X730250Y222250D03*
X730250Y298450D03*
D13*
X590550Y44450D03*
X571500Y520700D03*
X596900Y520700D03*
D15*
X577850Y292354D02*
X577850Y279146D01*
X628650Y279146D02*
X628650Y292354D01*
X603250Y292354D02*
X603250Y279146D01*
X654050Y279146D02*
X654050Y292354D01*
X704850Y292354D02*
X704850Y279146D01*
X679450Y279146D02*
X679450Y292354D01*
D13*
X628650Y44450D03*
D16*
X584200Y406400D03*
X596900Y425450D03*
X609600Y406400D03*
D13*
X577850Y158750D03*
X654050Y158750D03*
X730250Y184150D03*
X730250Y107950D03*
X692150Y107950D03*
X692150Y184150D03*
X577850Y120650D03*
X654050Y120650D03*
D18*
X647700Y514200D03*
D13*
X673100Y539200D03*
X698500Y514200D03*
D15*
X374650Y463804D02*
X374650Y450596D01*
X425450Y450596D02*
X425450Y463804D01*
X400050Y463804D02*
X400050Y450596D01*
D16*
X425450Y222250D03*
X412750Y241300D03*
X400050Y222250D03*
X501650Y222250D03*
X488950Y241300D03*
X476250Y222250D03*
D13*
X463550Y590550D03*
X488950Y590550D03*
X400050Y590550D03*
X425450Y590550D03*
D17*
X469900Y336550D03*
X546100Y336550D03*
X539750Y222250D03*
X539750Y298450D03*
D13*
X400050Y44450D03*
X387350Y527050D03*
X412750Y527050D03*
D15*
X374650Y292354D02*
X374650Y279146D01*
X425450Y279146D02*
X425450Y292354D01*
X400050Y292354D02*
X400050Y279146D01*
X463550Y279146D02*
X463550Y292354D01*
X514350Y292354D02*
X514350Y279146D01*
X488950Y279146D02*
X488950Y292354D01*
D13*
X438150Y44450D03*
D16*
X387350Y400050D03*
X400050Y419100D03*
X412750Y400050D03*
D13*
X387350Y158750D03*
X463550Y158750D03*
X539750Y184150D03*
X539750Y107950D03*
X501650Y107950D03*
X501650Y184150D03*
X387350Y120650D03*
X463550Y120650D03*
D18*
X457200Y514200D03*
D13*
X482600Y539200D03*
X508000Y514200D03*
D18*
X1790700Y399900D03*
D13*
X1816100Y424900D03*
X1841500Y399900D03*
D18*
X1606550Y399900D03*
D13*
X1631950Y424900D03*
X1657350Y399900D03*
D18*
X1422400Y399900D03*
D13*
X1447800Y424900D03*
X1473200Y399900D03*
D18*
X1041400Y399900D03*
D13*
X1066800Y424900D03*
X1092200Y399900D03*
D18*
X482600Y399900D03*
D13*
X508000Y424900D03*
X533400Y399900D03*
D18*
X660400Y399900D03*
D13*
X685800Y424900D03*
X711200Y399900D03*
D18*
X838200Y406250D03*
D13*
X863600Y431250D03*
X889000Y406250D03*
D18*
X1231900Y399900D03*
D13*
X1257300Y424900D03*
X1282700Y399900D03*
X1739900Y336550D03*
X1714500Y336550D03*
X1530350Y336550D03*
X1555750Y336550D03*
X1346200Y342900D03*
X1371600Y342900D03*
X1149350Y342900D03*
X1174750Y342900D03*
X965200Y342900D03*
X990600Y342900D03*
X393700Y349250D03*
X419100Y349250D03*
X596900Y342900D03*
X622300Y342900D03*
X781050Y342900D03*
X806450Y342900D03*
D17*
X1689100Y558800D03*
X1765300Y558800D03*
X1498600Y558800D03*
X1574800Y558800D03*
X1308100Y558800D03*
X1384300Y558800D03*
X1111250Y565150D03*
X1187450Y565150D03*
X920750Y558800D03*
X996950Y558800D03*
X730250Y565150D03*
X806450Y565150D03*
X539750Y558800D03*
X615950Y558800D03*
X349250Y558800D03*
X425450Y558800D03*
D19*
X158750Y533400D03*
D20*
X292100Y285750D03*
X234950Y25400D03*
M02*
