G04 EAGLE Gerber RS-274X export*
G75*
%MOMM*%
%FSLAX34Y34*%
%LPD*%
%INSoldermask Top*%
%IPPOS*%
%AMOC8*
5,1,8,0,0,1.08239X$1,22.5*%
G01*
%ADD10C,4.521200*%
%ADD11C,2.133600*%
%ADD12R,2.133600X2.133600*%
%ADD13C,2.082800*%
%ADD14C,1.828800*%
%ADD15C,1.524000*%
%ADD16P,1.649562X8X22.500000*%
%ADD17C,1.611200*%
%ADD18R,2.082800X2.082800*%
%ADD19C,3.803200*%
%ADD20C,0.959600*%

G36*
X153636Y414077D02*
X153636Y414077D01*
X153711Y414074D01*
X154687Y414176D01*
X154735Y414190D01*
X154825Y414206D01*
X155754Y414522D01*
X155798Y414547D01*
X155883Y414583D01*
X156718Y415097D01*
X156755Y415131D01*
X156830Y415185D01*
X157530Y415873D01*
X157559Y415914D01*
X157619Y415983D01*
X158148Y416810D01*
X158167Y416856D01*
X158211Y416937D01*
X158543Y417860D01*
X158551Y417910D01*
X158576Y417999D01*
X158694Y418973D01*
X158691Y419023D01*
X158695Y419109D01*
X158600Y420111D01*
X158586Y420160D01*
X158570Y420250D01*
X158254Y421206D01*
X158230Y421251D01*
X158195Y421335D01*
X157673Y422196D01*
X157640Y422234D01*
X157587Y422309D01*
X156887Y423033D01*
X156846Y423062D01*
X156777Y423123D01*
X155934Y423673D01*
X155888Y423693D01*
X155807Y423737D01*
X154863Y424085D01*
X154813Y424094D01*
X154725Y424119D01*
X153727Y424249D01*
X153684Y424247D01*
X153558Y424248D01*
X152547Y424109D01*
X152499Y424093D01*
X152409Y424074D01*
X151454Y423712D01*
X151411Y423686D01*
X151327Y423648D01*
X150477Y423083D01*
X150440Y423048D01*
X150368Y422991D01*
X149664Y422252D01*
X149636Y422209D01*
X149578Y422138D01*
X149057Y421260D01*
X149039Y421213D01*
X148998Y421131D01*
X148685Y420159D01*
X148678Y420109D01*
X148657Y420020D01*
X148568Y419002D01*
X148573Y418952D01*
X148572Y418861D01*
X148703Y417897D01*
X148719Y417849D01*
X148738Y417760D01*
X149080Y416849D01*
X149106Y416806D01*
X149145Y416723D01*
X149682Y415911D01*
X149717Y415875D01*
X149773Y415802D01*
X150477Y415130D01*
X150519Y415103D01*
X150590Y415044D01*
X151426Y414546D01*
X151473Y414528D01*
X151555Y414488D01*
X152481Y414188D01*
X152531Y414181D01*
X152620Y414159D01*
X153589Y414073D01*
X153636Y414077D01*
G37*
G36*
X125645Y414077D02*
X125645Y414077D01*
X125720Y414074D01*
X126696Y414176D01*
X126744Y414190D01*
X126834Y414206D01*
X127763Y414522D01*
X127807Y414547D01*
X127892Y414583D01*
X128727Y415097D01*
X128764Y415131D01*
X128839Y415185D01*
X129539Y415873D01*
X129568Y415914D01*
X129628Y415983D01*
X130157Y416810D01*
X130176Y416856D01*
X130220Y416937D01*
X130552Y417860D01*
X130560Y417910D01*
X130585Y417999D01*
X130703Y418973D01*
X130700Y419023D01*
X130704Y419109D01*
X130609Y420111D01*
X130595Y420160D01*
X130579Y420250D01*
X130263Y421206D01*
X130239Y421251D01*
X130204Y421335D01*
X129682Y422196D01*
X129649Y422234D01*
X129596Y422309D01*
X128896Y423033D01*
X128855Y423062D01*
X128786Y423123D01*
X127943Y423673D01*
X127897Y423693D01*
X127816Y423737D01*
X126872Y424085D01*
X126822Y424094D01*
X126734Y424119D01*
X125736Y424249D01*
X125693Y424247D01*
X125567Y424248D01*
X124556Y424109D01*
X124508Y424093D01*
X124418Y424074D01*
X123463Y423712D01*
X123420Y423686D01*
X123336Y423648D01*
X122486Y423083D01*
X122449Y423048D01*
X122377Y422991D01*
X121673Y422252D01*
X121645Y422209D01*
X121587Y422138D01*
X121066Y421260D01*
X121048Y421213D01*
X121007Y421131D01*
X120694Y420159D01*
X120687Y420109D01*
X120666Y420020D01*
X120577Y419002D01*
X120582Y418952D01*
X120581Y418861D01*
X120712Y417897D01*
X120728Y417849D01*
X120747Y417760D01*
X121089Y416849D01*
X121115Y416806D01*
X121154Y416723D01*
X121691Y415911D01*
X121726Y415875D01*
X121782Y415802D01*
X122486Y415130D01*
X122528Y415103D01*
X122599Y415044D01*
X123435Y414546D01*
X123482Y414528D01*
X123564Y414488D01*
X124490Y414188D01*
X124540Y414181D01*
X124629Y414159D01*
X125598Y414073D01*
X125645Y414077D01*
G37*
G36*
X153636Y375977D02*
X153636Y375977D01*
X153711Y375974D01*
X154687Y376076D01*
X154735Y376090D01*
X154825Y376106D01*
X155754Y376422D01*
X155798Y376447D01*
X155883Y376483D01*
X156718Y376997D01*
X156755Y377031D01*
X156830Y377085D01*
X157530Y377773D01*
X157559Y377814D01*
X157619Y377883D01*
X158148Y378710D01*
X158167Y378756D01*
X158211Y378837D01*
X158543Y379760D01*
X158551Y379810D01*
X158576Y379899D01*
X158694Y380873D01*
X158691Y380923D01*
X158695Y381009D01*
X158600Y382011D01*
X158586Y382060D01*
X158570Y382150D01*
X158254Y383106D01*
X158230Y383151D01*
X158195Y383235D01*
X157673Y384096D01*
X157640Y384134D01*
X157587Y384209D01*
X156887Y384933D01*
X156846Y384962D01*
X156777Y385023D01*
X155934Y385573D01*
X155888Y385593D01*
X155807Y385637D01*
X154863Y385985D01*
X154813Y385994D01*
X154725Y386019D01*
X153727Y386149D01*
X153684Y386147D01*
X153558Y386148D01*
X152547Y386009D01*
X152499Y385993D01*
X152409Y385974D01*
X151454Y385612D01*
X151411Y385586D01*
X151327Y385548D01*
X150477Y384983D01*
X150440Y384948D01*
X150368Y384891D01*
X149664Y384152D01*
X149636Y384109D01*
X149578Y384038D01*
X149057Y383160D01*
X149039Y383113D01*
X148998Y383031D01*
X148685Y382059D01*
X148678Y382009D01*
X148657Y381920D01*
X148568Y380902D01*
X148573Y380852D01*
X148572Y380761D01*
X148703Y379797D01*
X148719Y379749D01*
X148738Y379660D01*
X149080Y378749D01*
X149106Y378706D01*
X149145Y378623D01*
X149682Y377811D01*
X149717Y377775D01*
X149773Y377702D01*
X150477Y377030D01*
X150519Y377003D01*
X150590Y376944D01*
X151426Y376446D01*
X151473Y376428D01*
X151555Y376388D01*
X152481Y376088D01*
X152531Y376081D01*
X152620Y376059D01*
X153589Y375973D01*
X153636Y375977D01*
G37*
G36*
X125645Y375977D02*
X125645Y375977D01*
X125720Y375974D01*
X126696Y376076D01*
X126744Y376090D01*
X126834Y376106D01*
X127763Y376422D01*
X127807Y376447D01*
X127892Y376483D01*
X128727Y376997D01*
X128764Y377031D01*
X128839Y377085D01*
X129539Y377773D01*
X129568Y377814D01*
X129628Y377883D01*
X130157Y378710D01*
X130176Y378756D01*
X130220Y378837D01*
X130552Y379760D01*
X130560Y379810D01*
X130585Y379899D01*
X130703Y380873D01*
X130700Y380923D01*
X130704Y381009D01*
X130609Y382011D01*
X130595Y382060D01*
X130579Y382150D01*
X130263Y383106D01*
X130239Y383151D01*
X130204Y383235D01*
X129682Y384096D01*
X129649Y384134D01*
X129596Y384209D01*
X128896Y384933D01*
X128855Y384962D01*
X128786Y385023D01*
X127943Y385573D01*
X127897Y385593D01*
X127816Y385637D01*
X126872Y385985D01*
X126822Y385994D01*
X126734Y386019D01*
X125736Y386149D01*
X125693Y386147D01*
X125567Y386148D01*
X124556Y386009D01*
X124508Y385993D01*
X124418Y385974D01*
X123463Y385612D01*
X123420Y385586D01*
X123336Y385548D01*
X122486Y384983D01*
X122449Y384948D01*
X122377Y384891D01*
X121673Y384152D01*
X121645Y384109D01*
X121587Y384038D01*
X121066Y383160D01*
X121048Y383113D01*
X121007Y383031D01*
X120694Y382059D01*
X120687Y382009D01*
X120666Y381920D01*
X120577Y380902D01*
X120582Y380852D01*
X120581Y380761D01*
X120712Y379797D01*
X120728Y379749D01*
X120747Y379660D01*
X121089Y378749D01*
X121115Y378706D01*
X121154Y378623D01*
X121691Y377811D01*
X121726Y377775D01*
X121782Y377702D01*
X122486Y377030D01*
X122528Y377003D01*
X122599Y376944D01*
X123435Y376446D01*
X123482Y376428D01*
X123564Y376388D01*
X124490Y376088D01*
X124540Y376081D01*
X124629Y376059D01*
X125598Y375973D01*
X125645Y375977D01*
G37*
D10*
X50800Y137000D03*
X50800Y77000D03*
X97800Y107000D03*
D11*
X127400Y50800D03*
D12*
X177400Y50800D03*
D11*
X127400Y298450D03*
D12*
X177400Y298450D03*
D13*
X152400Y139700D03*
X152400Y165100D03*
X152400Y190500D03*
X152400Y215900D03*
X254000Y292100D03*
X254000Y571500D03*
X69850Y381000D03*
X69850Y406400D03*
X69850Y431800D03*
X69850Y457200D03*
X25400Y336550D03*
X101600Y336550D03*
X25400Y361950D03*
X25400Y438150D03*
D14*
X292100Y63500D03*
X292100Y88900D03*
X292100Y114300D03*
X292100Y139700D03*
X292100Y165100D03*
X292100Y190500D03*
X292100Y215900D03*
X292100Y241300D03*
X215900Y241300D03*
X215900Y215900D03*
X215900Y190500D03*
X215900Y165100D03*
X215900Y139700D03*
X215900Y114300D03*
X215900Y88900D03*
X215900Y63500D03*
X292100Y342900D03*
X292100Y368300D03*
X292100Y393700D03*
X292100Y419100D03*
X292100Y444500D03*
X292100Y469900D03*
X292100Y495300D03*
X292100Y520700D03*
X215900Y520700D03*
X215900Y495300D03*
X215900Y469900D03*
X215900Y444500D03*
X215900Y419100D03*
X215900Y393700D03*
X215900Y368300D03*
X215900Y342900D03*
D13*
X25400Y190500D03*
X25400Y215900D03*
X50800Y190500D03*
X50800Y215900D03*
X76200Y190500D03*
X76200Y215900D03*
X25400Y273050D03*
X25400Y298450D03*
X50800Y273050D03*
X50800Y298450D03*
X76200Y273050D03*
X76200Y298450D03*
D15*
X1695450Y456946D02*
X1695450Y470154D01*
X1746250Y470154D02*
X1746250Y456946D01*
X1720850Y456946D02*
X1720850Y470154D01*
D16*
X1739900Y222250D03*
X1727200Y241300D03*
X1714500Y222250D03*
X1816100Y222250D03*
X1803400Y241300D03*
X1790700Y222250D03*
D13*
X1771650Y590550D03*
X1797050Y590550D03*
X1708150Y590550D03*
X1733550Y590550D03*
D17*
X1778000Y330200D03*
X1854200Y330200D03*
X1854200Y222250D03*
X1854200Y298450D03*
D13*
X1714500Y44450D03*
X1708150Y514350D03*
X1733550Y514350D03*
D15*
X1701800Y292354D02*
X1701800Y279146D01*
X1752600Y279146D02*
X1752600Y292354D01*
X1727200Y292354D02*
X1727200Y279146D01*
X1778000Y279146D02*
X1778000Y292354D01*
X1828800Y292354D02*
X1828800Y279146D01*
X1803400Y279146D02*
X1803400Y292354D01*
D13*
X1752600Y44450D03*
D16*
X1708150Y400050D03*
X1720850Y419100D03*
X1733550Y400050D03*
D13*
X1701800Y158750D03*
X1778000Y158750D03*
X1854200Y184150D03*
X1854200Y107950D03*
X1816100Y107950D03*
X1816100Y184150D03*
X1701800Y120650D03*
X1778000Y120650D03*
D18*
X1797050Y514200D03*
D13*
X1822450Y539200D03*
X1847850Y514200D03*
D15*
X1511300Y470154D02*
X1511300Y456946D01*
X1562100Y456946D02*
X1562100Y470154D01*
X1536700Y470154D02*
X1536700Y456946D01*
D16*
X1555750Y222250D03*
X1543050Y241300D03*
X1530350Y222250D03*
X1631950Y222250D03*
X1619250Y241300D03*
X1606550Y222250D03*
D13*
X1593850Y590550D03*
X1619250Y590550D03*
X1530350Y590550D03*
X1555750Y590550D03*
D17*
X1593850Y330200D03*
X1670050Y330200D03*
X1670050Y222250D03*
X1670050Y298450D03*
D13*
X1530350Y44450D03*
X1517650Y527050D03*
X1543050Y527050D03*
D15*
X1517650Y292354D02*
X1517650Y279146D01*
X1568450Y279146D02*
X1568450Y292354D01*
X1543050Y292354D02*
X1543050Y279146D01*
X1593850Y279146D02*
X1593850Y292354D01*
X1644650Y292354D02*
X1644650Y279146D01*
X1619250Y279146D02*
X1619250Y292354D01*
D13*
X1568450Y44450D03*
D16*
X1524000Y400050D03*
X1536700Y419100D03*
X1549400Y400050D03*
D13*
X1517650Y158750D03*
X1593850Y158750D03*
X1670050Y184150D03*
X1670050Y107950D03*
X1631950Y107950D03*
X1631950Y184150D03*
X1517650Y120650D03*
X1593850Y120650D03*
D18*
X1606550Y514200D03*
D13*
X1631950Y539200D03*
X1657350Y514200D03*
D15*
X1320800Y470154D02*
X1320800Y456946D01*
X1371600Y456946D02*
X1371600Y470154D01*
X1346200Y470154D02*
X1346200Y456946D01*
D16*
X1371600Y222250D03*
X1358900Y241300D03*
X1346200Y222250D03*
X1447800Y222250D03*
X1435100Y241300D03*
X1422400Y222250D03*
D13*
X1409700Y590550D03*
X1435100Y590550D03*
X1346200Y590550D03*
X1371600Y590550D03*
D17*
X1416050Y336550D03*
X1492250Y336550D03*
X1485900Y222250D03*
X1485900Y298450D03*
D13*
X1346200Y44450D03*
X1333500Y514350D03*
X1358900Y514350D03*
D15*
X1333500Y292354D02*
X1333500Y279146D01*
X1384300Y279146D02*
X1384300Y292354D01*
X1358900Y292354D02*
X1358900Y279146D01*
X1409700Y279146D02*
X1409700Y292354D01*
X1460500Y292354D02*
X1460500Y279146D01*
X1435100Y279146D02*
X1435100Y292354D01*
D13*
X1384300Y44450D03*
D16*
X1333500Y400050D03*
X1346200Y419100D03*
X1358900Y400050D03*
D13*
X1333500Y158750D03*
X1409700Y158750D03*
X1485900Y184150D03*
X1485900Y107950D03*
X1447800Y107950D03*
X1447800Y184150D03*
X1333500Y120650D03*
X1409700Y120650D03*
D18*
X1416050Y514200D03*
D13*
X1441450Y539200D03*
X1466850Y514200D03*
D15*
X1130300Y470154D02*
X1130300Y456946D01*
X1181100Y456946D02*
X1181100Y470154D01*
X1155700Y470154D02*
X1155700Y456946D01*
D16*
X1174750Y222250D03*
X1162050Y241300D03*
X1149350Y222250D03*
X1250950Y222250D03*
X1238250Y241300D03*
X1225550Y222250D03*
D13*
X1212850Y590550D03*
X1238250Y590550D03*
X1149350Y590550D03*
X1174750Y590550D03*
D17*
X1219200Y336550D03*
X1295400Y336550D03*
X1289050Y222250D03*
X1289050Y298450D03*
D13*
X1149350Y44450D03*
X1136650Y520700D03*
X1162050Y520700D03*
D15*
X1136650Y292354D02*
X1136650Y279146D01*
X1187450Y279146D02*
X1187450Y292354D01*
X1162050Y292354D02*
X1162050Y279146D01*
X1212850Y279146D02*
X1212850Y292354D01*
X1263650Y292354D02*
X1263650Y279146D01*
X1238250Y279146D02*
X1238250Y292354D01*
D13*
X1187450Y44450D03*
D16*
X1143000Y406400D03*
X1155700Y425450D03*
X1168400Y406400D03*
D13*
X1136650Y158750D03*
X1212850Y158750D03*
X1289050Y184150D03*
X1289050Y107950D03*
X1250950Y107950D03*
X1250950Y184150D03*
X1136650Y120650D03*
X1212850Y120650D03*
D18*
X1219200Y514200D03*
D13*
X1244600Y539200D03*
X1270000Y514200D03*
D15*
X939800Y470154D02*
X939800Y456946D01*
X990600Y456946D02*
X990600Y470154D01*
X965200Y470154D02*
X965200Y456946D01*
D16*
X984250Y222250D03*
X971550Y241300D03*
X958850Y222250D03*
X1060450Y222250D03*
X1047750Y241300D03*
X1035050Y222250D03*
D13*
X1022350Y590550D03*
X1047750Y590550D03*
X958850Y590550D03*
X984250Y590550D03*
D17*
X1028700Y336550D03*
X1104900Y336550D03*
X1098550Y222250D03*
X1098550Y298450D03*
D13*
X958850Y44450D03*
X946150Y520700D03*
X971550Y520700D03*
D15*
X946150Y292354D02*
X946150Y279146D01*
X996950Y279146D02*
X996950Y292354D01*
X971550Y292354D02*
X971550Y279146D01*
X1022350Y279146D02*
X1022350Y292354D01*
X1073150Y292354D02*
X1073150Y279146D01*
X1047750Y279146D02*
X1047750Y292354D01*
D13*
X996950Y44450D03*
D16*
X952500Y400050D03*
X965200Y419100D03*
X977900Y400050D03*
D13*
X946150Y158750D03*
X1022350Y158750D03*
X1098550Y184150D03*
X1098550Y107950D03*
X1060450Y107950D03*
X1060450Y184150D03*
X946150Y120650D03*
X1022350Y120650D03*
D18*
X1028700Y514200D03*
D13*
X1054100Y539200D03*
X1079500Y514200D03*
D15*
X749300Y476504D02*
X749300Y463296D01*
X800100Y463296D02*
X800100Y476504D01*
X774700Y476504D02*
X774700Y463296D01*
D16*
X800100Y222250D03*
X787400Y241300D03*
X774700Y222250D03*
X876300Y222250D03*
X863600Y241300D03*
X850900Y222250D03*
D13*
X838200Y590550D03*
X863600Y590550D03*
X774700Y590550D03*
X800100Y590550D03*
D17*
X844550Y336550D03*
X920750Y336550D03*
X914400Y222250D03*
X914400Y298450D03*
D13*
X774700Y44450D03*
X755650Y527050D03*
X781050Y527050D03*
D15*
X762000Y292354D02*
X762000Y279146D01*
X812800Y279146D02*
X812800Y292354D01*
X787400Y292354D02*
X787400Y279146D01*
X838200Y279146D02*
X838200Y292354D01*
X889000Y292354D02*
X889000Y279146D01*
X863600Y279146D02*
X863600Y292354D01*
D13*
X812800Y44450D03*
D16*
X762000Y406400D03*
X774700Y425450D03*
X787400Y406400D03*
D13*
X762000Y158750D03*
X838200Y158750D03*
X914400Y184150D03*
X914400Y107950D03*
X876300Y107950D03*
X876300Y184150D03*
X762000Y120650D03*
X838200Y120650D03*
D18*
X838200Y514200D03*
D13*
X863600Y539200D03*
X889000Y514200D03*
D15*
X552450Y476504D02*
X552450Y463296D01*
X603250Y463296D02*
X603250Y476504D01*
X577850Y476504D02*
X577850Y463296D01*
D16*
X615950Y222250D03*
X603250Y241300D03*
X590550Y222250D03*
X692150Y222250D03*
X679450Y241300D03*
X666750Y222250D03*
D13*
X654050Y590550D03*
X679450Y590550D03*
X590550Y590550D03*
X615950Y590550D03*
D17*
X660400Y336550D03*
X736600Y336550D03*
X730250Y222250D03*
X730250Y298450D03*
D13*
X590550Y44450D03*
X571500Y520700D03*
X596900Y520700D03*
D15*
X577850Y292354D02*
X577850Y279146D01*
X628650Y279146D02*
X628650Y292354D01*
X603250Y292354D02*
X603250Y279146D01*
X654050Y279146D02*
X654050Y292354D01*
X704850Y292354D02*
X704850Y279146D01*
X679450Y279146D02*
X679450Y292354D01*
D13*
X628650Y44450D03*
D16*
X584200Y406400D03*
X596900Y425450D03*
X609600Y406400D03*
D13*
X577850Y158750D03*
X654050Y158750D03*
X730250Y184150D03*
X730250Y107950D03*
X692150Y107950D03*
X692150Y184150D03*
X577850Y120650D03*
X654050Y120650D03*
D18*
X647700Y514200D03*
D13*
X673100Y539200D03*
X698500Y514200D03*
D15*
X374650Y463804D02*
X374650Y450596D01*
X425450Y450596D02*
X425450Y463804D01*
X400050Y463804D02*
X400050Y450596D01*
D16*
X425450Y222250D03*
X412750Y241300D03*
X400050Y222250D03*
X501650Y222250D03*
X488950Y241300D03*
X476250Y222250D03*
D13*
X463550Y590550D03*
X488950Y590550D03*
X400050Y590550D03*
X425450Y590550D03*
D17*
X469900Y336550D03*
X546100Y336550D03*
X539750Y222250D03*
X539750Y298450D03*
D13*
X400050Y44450D03*
X387350Y527050D03*
X412750Y527050D03*
D15*
X374650Y292354D02*
X374650Y279146D01*
X425450Y279146D02*
X425450Y292354D01*
X400050Y292354D02*
X400050Y279146D01*
X463550Y279146D02*
X463550Y292354D01*
X514350Y292354D02*
X514350Y279146D01*
X488950Y279146D02*
X488950Y292354D01*
D13*
X438150Y44450D03*
D16*
X387350Y400050D03*
X400050Y419100D03*
X412750Y400050D03*
D13*
X387350Y158750D03*
X463550Y158750D03*
X539750Y184150D03*
X539750Y107950D03*
X501650Y107950D03*
X501650Y184150D03*
X387350Y120650D03*
X463550Y120650D03*
D18*
X457200Y514200D03*
D13*
X482600Y539200D03*
X508000Y514200D03*
D18*
X1790700Y399900D03*
D13*
X1816100Y424900D03*
X1841500Y399900D03*
D18*
X1606550Y399900D03*
D13*
X1631950Y424900D03*
X1657350Y399900D03*
D18*
X1422400Y399900D03*
D13*
X1447800Y424900D03*
X1473200Y399900D03*
D18*
X1041400Y399900D03*
D13*
X1066800Y424900D03*
X1092200Y399900D03*
D18*
X482600Y399900D03*
D13*
X508000Y424900D03*
X533400Y399900D03*
D18*
X660400Y399900D03*
D13*
X685800Y424900D03*
X711200Y399900D03*
D18*
X838200Y406250D03*
D13*
X863600Y431250D03*
X889000Y406250D03*
D18*
X1231900Y399900D03*
D13*
X1257300Y424900D03*
X1282700Y399900D03*
X1739900Y336550D03*
X1714500Y336550D03*
X1530350Y336550D03*
X1555750Y336550D03*
X1346200Y342900D03*
X1371600Y342900D03*
X1149350Y342900D03*
X1174750Y342900D03*
X965200Y342900D03*
X990600Y342900D03*
X393700Y349250D03*
X419100Y349250D03*
X596900Y342900D03*
X622300Y342900D03*
X781050Y342900D03*
X806450Y342900D03*
D17*
X1689100Y558800D03*
X1765300Y558800D03*
X1498600Y558800D03*
X1574800Y558800D03*
X1308100Y558800D03*
X1384300Y558800D03*
X1111250Y565150D03*
X1187450Y565150D03*
X920750Y558800D03*
X996950Y558800D03*
X730250Y565150D03*
X806450Y565150D03*
X539750Y558800D03*
X615950Y558800D03*
X349250Y558800D03*
X425450Y558800D03*
D19*
X158750Y533400D03*
D20*
X292100Y285750D03*
X234950Y25400D03*
M02*
