%
M48
M72
T01C0.01378
T02C0.03200
T03C0.03543
T04C0.04000
T05C0.11800
%
T01
X93800Y21300
X116300Y123800
T02
X153800Y123800
X163800Y123800
X173800Y123800
X183800Y123800
X193800Y123800
X203800Y123800
X228800Y123800
X238800Y123800
X248800Y123800
X258800Y123800
X268800Y123800
X278800Y123800
X301300Y123800
X311300Y123800
X321300Y123800
X331300Y123800
X341300Y123800
X351300Y123800
X373800Y123800
X383800Y123800
X393800Y123800
X403800Y123800
X413800Y123800
X423800Y123800
X448800Y123800
X458800Y123800
X468800Y123800
X478800Y123800
X488800Y123800
X498800Y123800
X526300Y123800
X536300Y123800
X546300Y123800
X556300Y123800
X566300Y123800
X576300Y123800
X598800Y123800
X608800Y123800
X618800Y123800
X628800Y123800
X638800Y123800
X648800Y123800
X671300Y123800
X681300Y123800
X691300Y123800
X701300Y123800
X711300Y123800
X721300Y123800
X711300Y106300
X706300Y98800
X716300Y98800
X686300Y98800
X676300Y98800
X681300Y106300
X643800Y98800
X633800Y98800
X638800Y106300
X613800Y98800
X603800Y98800
X608800Y106300
X571300Y98800
X561300Y98800
X566300Y106300
X541300Y98800
X531300Y98800
X536300Y106300
X493800Y98800
X483800Y98800
X463800Y98800
X453800Y98800
X458800Y106300
X488800Y106300
X418800Y98800
X408800Y98800
X388800Y98800
X378800Y98800
X383800Y106300
X413800Y106300
X346300Y98800
X336300Y98800
X341300Y106300
X316300Y98800
X306300Y98800
X311300Y106300
X273800Y98800
X263800Y98800
X268800Y106300
X243800Y98800
X233800Y98800
X238800Y106300
X198800Y98800
X188800Y98800
X193800Y106300
X168800Y98800
X158800Y98800
X163800Y106300
X116300Y106300
X116300Y96300
X116300Y86300
X116300Y76300
X116300Y66300
X116300Y56300
X116300Y46300
X116300Y36300
X86300Y36300
X86300Y46300
X86300Y56300
X86300Y66300
X86300Y76300
X86300Y86300
X86300Y96300
X86300Y106300
X86300Y146300
X86300Y156300
X86300Y166300
X86300Y176300
X86300Y186300
X86300Y196300
X86300Y206300
X86300Y216300
X116300Y216300
X116300Y206300
X116300Y196300
X116300Y186300
X116300Y176300
X116300Y166300
X116300Y156300
X116300Y146300
X153800Y168800
X163800Y168800
X158800Y176300
X158800Y191300
X168800Y191300
X148800Y191300
X218800Y196300
X228800Y196300
X238800Y196300
X236300Y178800
X231300Y171300
X241300Y171300
X301300Y171300
X311300Y171300
X306300Y178800
X306300Y196300
X316300Y196300
X296300Y196300
X236300Y216300
X226300Y216300
X163800Y218800
X153800Y218800
X298800Y218800
X308800Y218800
X373800Y216300
X383800Y216300
X381300Y193800
X391300Y193800
X371300Y193800
X381300Y176300
X376300Y168800
X386300Y168800
X446300Y193800
X456300Y193800
X466300Y193800
X456300Y178800
X451300Y171300
X461300Y171300
X521300Y193800
X531300Y193800
X541300Y193800
X531300Y176300
X526300Y168800
X536300Y168800
X596300Y193800
X606300Y193800
X616300Y193800
X606300Y176300
X601300Y168800
X611300Y168800
X673800Y168800
X683800Y168800
X678800Y176300
X678800Y193800
X688800Y193800
X668800Y193800
X673800Y213800
X683800Y213800
X608800Y218800
X598800Y218800
X536300Y213800
X526300Y213800
X458800Y216300
X448800Y216300
T03
X51457Y31300
X71143Y31300
X153800Y58800
X183800Y58800
X198800Y53800
X213800Y53800
X228800Y58800
X258800Y58800
X273800Y53800
X288800Y53800
X301300Y58800
X331300Y58800
X346300Y53800
X361300Y53800
X373800Y58800
X403800Y58800
X418800Y53800
X433800Y53800
X448800Y58800
X478800Y58800
X493800Y53800
X508800Y53800
X526300Y58800
X556300Y58800
X571300Y53800
X586300Y53800
X598800Y58800
X628800Y58800
X643800Y53800
X658800Y53800
X671300Y58800
X701300Y58800
X716300Y53800
X731300Y53800
X701300Y73800
X716300Y83800
X731300Y83800
X731300Y98800
X671300Y73800
X658800Y83800
X643800Y83800
X628800Y73800
X598800Y73800
X586300Y83800
X571300Y83800
X556300Y73800
X526300Y73800
X508800Y83800
X493800Y83800
X478800Y73800
X448800Y73800
X433800Y83800
X418800Y83800
X403800Y73800
X373800Y73800
X361300Y83800
X346300Y83800
X331300Y73800
X301300Y73800
X288800Y83800
X273800Y83800
X258800Y73800
X228800Y73800
X213800Y83800
X198800Y83800
X183800Y73800
X153800Y73800
X213800Y98800
X288800Y98800
X361300Y98800
X433800Y98800
X508800Y98800
X586300Y98800
X658800Y98800
X658800Y128800
X658800Y141300
X676300Y143800
X686300Y143800
X701300Y141300
X731300Y141300
X731300Y128800
X628800Y141300
X613800Y143800
X603800Y143800
X588800Y143800
X558800Y143800
X541300Y146300
X531300Y146300
X511300Y143800
X481300Y143800
X463800Y146300
X453800Y146300
X436300Y143800
X406300Y143800
X391300Y146300
X381300Y146300
X363800Y143800
X333800Y143800
X318800Y146300
X308800Y146300
X291300Y143800
X261300Y143800
X246300Y146300
X236300Y146300
X216300Y143800
X186300Y143800
X166300Y148800
X156300Y148800
X213800Y128800
X288800Y128800
X361300Y128800
X433800Y128800
X508800Y128800
X586300Y128800
X591300Y231300
X621300Y231300
X666300Y231300
X696300Y231300
X546300Y231300
X516300Y231300
X468800Y233800
X438800Y233800
X393800Y231300
X363800Y231300
X318800Y233800
X288800Y233800
X243800Y231300
X213800Y231300
X168800Y231300
X138800Y231300
X11300Y183800
X11300Y153800
X11300Y143800
X41300Y143800
X51457Y128800
X71143Y128800
T04
X101300Y126300
X31300Y128800
X21300Y128800
X11300Y128800
X11300Y118800
X21300Y118800
X31300Y118800
X31300Y96300
X21300Y96300
X11300Y96300
X11300Y86300
X21300Y86300
X31300Y86300
X61300Y86300
X61300Y76300
X61300Y66300
X61300Y96300
X61800Y161300
X50800Y161300
X28800Y161300
X28800Y171300
X50800Y176300
X61800Y176300
X28800Y181300
X28800Y191300
X101300Y236300
X158800Y243800
X168800Y243800
X183800Y243800
X193800Y243800
X233800Y243800
X243800Y243800
X258800Y243800
X268800Y243800
X306300Y243800
X316300Y243800
X331300Y243800
X341300Y243800
X378800Y243800
X388800Y243800
X403800Y243800
X413800Y243800
X453800Y243800
X463800Y243800
X478800Y243800
X488800Y243800
X531300Y243800
X541300Y243800
X556300Y243800
X566300Y243800
X603800Y243800
X613800Y243800
X628800Y243800
X638800Y243800
X673800Y243800
X683800Y243800
X698800Y243800
X708800Y243800
X718800Y223583
X708800Y213741
X728800Y213741
X653800Y213741
X633800Y213741
X643800Y223583
X578800Y213741
X558800Y213741
X568800Y223583
X501300Y213741
X481300Y213741
X491300Y223583
X426300Y213741
X406300Y213741
X416300Y223583
X351300Y213741
X331300Y213741
X341300Y223583
X276300Y213741
X256300Y213741
X266300Y223583
X201300Y213741
X181300Y213741
X191300Y223583
X201300Y178583
X191300Y168741
X211300Y168741
X261300Y168741
X281300Y168741
X271300Y178583
X331300Y171241
X351300Y171241
X341300Y181083
X411300Y168741
X431300Y168741
X421300Y178583
X486300Y168741
X506300Y168741
X496300Y178583
X561300Y168741
X581300Y168741
X571300Y178583
X633800Y168741
X653800Y168741
X643800Y178583
X706300Y168741
X726300Y168741
X716300Y178583
X691300Y28800
X676300Y28800
X618800Y28800
X603800Y28800
X546300Y28800
X531300Y28800
X468800Y28800
X453800Y28800
X393800Y28800
X378800Y28800
X321300Y28800
X306300Y28800
X248800Y28800
X233800Y28800
X173800Y28800
X158800Y28800
T05
X39804Y53426
X21300Y41615
X21300Y65237
M30
