G75*
%MOIN*%
%OFA0B0*%
%FSLAX25Y25*%
%IPPOS*%
%LPD*%
%AMOC8*
5,1,8,0,0,1.08239X$1,22.5*
%
%ADD10C,0.17800*%
%ADD11C,0.08400*%
%ADD12R,0.08400X0.08400*%
%ADD13C,0.00500*%
%ADD14C,0.08200*%
%ADD15C,0.07200*%
%ADD16C,0.06000*%
%ADD17OC8,0.06000*%
%ADD18C,0.06343*%
%ADD19R,0.08200X0.08200*%
%ADD20C,0.03778*%
D10*
X0021300Y0041615D03*
X0039804Y0053426D03*
X0021300Y0065237D03*
D11*
X0051457Y0031300D03*
X0051457Y0128800D03*
D12*
X0071143Y0128800D03*
X0071143Y0031300D03*
D13*
X0061790Y0159570D02*
X0062174Y0159610D01*
X0062540Y0159734D01*
X0062869Y0159937D01*
X0063144Y0160208D01*
X0063353Y0160533D01*
X0063483Y0160896D01*
X0063530Y0161280D01*
X0063492Y0161674D01*
X0063368Y0162051D01*
X0063162Y0162390D01*
X0062887Y0162675D01*
X0062555Y0162891D01*
X0062183Y0163028D01*
X0061790Y0163080D01*
X0061392Y0163025D01*
X0061016Y0162882D01*
X0060681Y0162660D01*
X0060404Y0162369D01*
X0060198Y0162023D01*
X0060075Y0161640D01*
X0060040Y0161240D01*
X0060092Y0160860D01*
X0060227Y0160502D01*
X0060438Y0160182D01*
X0060715Y0159918D01*
X0061044Y0159722D01*
X0061409Y0159604D01*
X0061790Y0159570D01*
X0062739Y0159856D02*
X0060818Y0159856D01*
X0060324Y0160355D02*
X0063239Y0160355D01*
X0063468Y0160853D02*
X0060094Y0160853D01*
X0060050Y0161352D02*
X0063523Y0161352D01*
X0063434Y0161850D02*
X0060143Y0161850D01*
X0060392Y0162349D02*
X0063187Y0162349D01*
X0062622Y0162847D02*
X0060963Y0162847D01*
X0052472Y0161674D02*
X0052510Y0161280D01*
X0052463Y0160896D01*
X0052333Y0160533D01*
X0052124Y0160208D01*
X0051849Y0159937D01*
X0051520Y0159734D01*
X0051154Y0159610D01*
X0050770Y0159570D01*
X0050389Y0159604D01*
X0050024Y0159722D01*
X0049695Y0159918D01*
X0049418Y0160182D01*
X0049207Y0160502D01*
X0049072Y0160860D01*
X0049020Y0161240D01*
X0049055Y0161640D01*
X0049178Y0162023D01*
X0049384Y0162369D01*
X0049661Y0162660D01*
X0049996Y0162882D01*
X0050372Y0163025D01*
X0050770Y0163080D01*
X0051163Y0163028D01*
X0051535Y0162891D01*
X0051867Y0162675D01*
X0052142Y0162390D01*
X0052348Y0162051D01*
X0052472Y0161674D01*
X0052414Y0161850D02*
X0049123Y0161850D01*
X0049030Y0161352D02*
X0052503Y0161352D01*
X0052448Y0160853D02*
X0049074Y0160853D01*
X0049304Y0160355D02*
X0052219Y0160355D01*
X0051718Y0159856D02*
X0049798Y0159856D01*
X0049372Y0162349D02*
X0052167Y0162349D01*
X0051602Y0162847D02*
X0049943Y0162847D01*
X0050770Y0174570D02*
X0051154Y0174610D01*
X0051520Y0174734D01*
X0051849Y0174937D01*
X0052124Y0175208D01*
X0052333Y0175533D01*
X0052463Y0175896D01*
X0052510Y0176280D01*
X0052472Y0176674D01*
X0052348Y0177051D01*
X0052142Y0177390D01*
X0051867Y0177675D01*
X0051535Y0177891D01*
X0051163Y0178028D01*
X0050770Y0178080D01*
X0050372Y0178025D01*
X0049996Y0177882D01*
X0049661Y0177660D01*
X0049384Y0177369D01*
X0049178Y0177023D01*
X0049055Y0176640D01*
X0049020Y0176240D01*
X0049072Y0175860D01*
X0049207Y0175502D01*
X0049418Y0175182D01*
X0049695Y0174918D01*
X0050024Y0174722D01*
X0050389Y0174604D01*
X0050770Y0174570D01*
X0051646Y0174812D02*
X0049873Y0174812D01*
X0049333Y0175310D02*
X0052190Y0175310D01*
X0052432Y0175809D02*
X0049091Y0175809D01*
X0049026Y0176307D02*
X0052507Y0176307D01*
X0052429Y0176806D02*
X0049108Y0176806D01*
X0049345Y0177304D02*
X0052194Y0177304D01*
X0051671Y0177803D02*
X0049876Y0177803D01*
X0060075Y0176640D02*
X0060198Y0177023D01*
X0060404Y0177369D01*
X0060681Y0177660D01*
X0061016Y0177882D01*
X0061392Y0178025D01*
X0061790Y0178080D01*
X0062183Y0178028D01*
X0062555Y0177891D01*
X0062887Y0177675D01*
X0063162Y0177390D01*
X0063368Y0177051D01*
X0063492Y0176674D01*
X0063530Y0176280D01*
X0063483Y0175896D01*
X0063353Y0175533D01*
X0063144Y0175208D01*
X0062869Y0174937D01*
X0062540Y0174734D01*
X0062174Y0174610D01*
X0061790Y0174570D01*
X0061409Y0174604D01*
X0061044Y0174722D01*
X0060715Y0174918D01*
X0060438Y0175182D01*
X0060227Y0175502D01*
X0060092Y0175860D01*
X0060040Y0176240D01*
X0060075Y0176640D01*
X0060128Y0176806D02*
X0063449Y0176806D01*
X0063527Y0176307D02*
X0060046Y0176307D01*
X0060111Y0175809D02*
X0063452Y0175809D01*
X0063210Y0175310D02*
X0060353Y0175310D01*
X0060893Y0174812D02*
X0062666Y0174812D01*
X0063214Y0177304D02*
X0060366Y0177304D01*
X0060896Y0177803D02*
X0062691Y0177803D01*
D14*
X0028800Y0181300D03*
X0011300Y0183800D03*
X0028800Y0191300D03*
X0028800Y0171300D03*
X0028800Y0161300D03*
X0011300Y0153800D03*
X0011300Y0143800D03*
X0041300Y0143800D03*
X0031300Y0128800D03*
X0021300Y0128800D03*
X0011300Y0128800D03*
X0011300Y0118800D03*
X0021300Y0118800D03*
X0031300Y0118800D03*
X0031300Y0096300D03*
X0021300Y0096300D03*
X0011300Y0096300D03*
X0011300Y0086300D03*
X0021300Y0086300D03*
X0031300Y0086300D03*
X0061300Y0086300D03*
X0061300Y0076300D03*
X0061300Y0066300D03*
X0061300Y0096300D03*
X0101300Y0126300D03*
X0156300Y0148800D03*
X0166300Y0148800D03*
X0211300Y0168741D03*
X0201300Y0178583D03*
X0271300Y0178583D03*
X0281300Y0168741D03*
X0341300Y0181083D03*
X0351300Y0171241D03*
X0421300Y0178583D03*
X0431300Y0168741D03*
X0453800Y0146300D03*
X0463800Y0146300D03*
X0506300Y0168741D03*
X0496300Y0178583D03*
X0571300Y0178583D03*
X0581300Y0168741D03*
X0643800Y0178583D03*
X0653800Y0168741D03*
X0716300Y0178583D03*
X0726300Y0168741D03*
X0686300Y0143800D03*
X0676300Y0143800D03*
X0613800Y0143800D03*
X0603800Y0143800D03*
X0541300Y0146300D03*
X0531300Y0146300D03*
X0391300Y0146300D03*
X0381300Y0146300D03*
X0318800Y0146300D03*
X0308800Y0146300D03*
X0246300Y0146300D03*
X0236300Y0146300D03*
X0213800Y0083800D03*
X0198800Y0083800D03*
X0183800Y0073800D03*
X0153800Y0073800D03*
X0153800Y0058800D03*
X0183800Y0058800D03*
X0198800Y0053800D03*
X0213800Y0053800D03*
X0228800Y0058800D03*
X0258800Y0058800D03*
X0273800Y0053800D03*
X0288800Y0053800D03*
X0301300Y0058800D03*
X0331300Y0058800D03*
X0346300Y0053800D03*
X0361300Y0053800D03*
X0373800Y0058800D03*
X0403800Y0058800D03*
X0418800Y0053800D03*
X0433800Y0053800D03*
X0448800Y0058800D03*
X0478800Y0058800D03*
X0493800Y0053800D03*
X0508800Y0053800D03*
X0526300Y0058800D03*
X0556300Y0058800D03*
X0571300Y0053800D03*
X0586300Y0053800D03*
X0598800Y0058800D03*
X0628800Y0058800D03*
X0643800Y0053800D03*
X0658800Y0053800D03*
X0671300Y0058800D03*
X0701300Y0058800D03*
X0716300Y0053800D03*
X0731300Y0053800D03*
X0701300Y0073800D03*
X0716300Y0083800D03*
X0731300Y0083800D03*
X0671300Y0073800D03*
X0658800Y0083800D03*
X0643800Y0083800D03*
X0628800Y0073800D03*
X0598800Y0073800D03*
X0586300Y0083800D03*
X0571300Y0083800D03*
X0556300Y0073800D03*
X0526300Y0073800D03*
X0508800Y0083800D03*
X0493800Y0083800D03*
X0478800Y0073800D03*
X0448800Y0073800D03*
X0433800Y0083800D03*
X0418800Y0083800D03*
X0403800Y0073800D03*
X0373800Y0073800D03*
X0361300Y0083800D03*
X0346300Y0083800D03*
X0331300Y0073800D03*
X0301300Y0073800D03*
X0288800Y0083800D03*
X0273800Y0083800D03*
X0258800Y0073800D03*
X0228800Y0073800D03*
X0233800Y0028800D03*
X0248800Y0028800D03*
X0306300Y0028800D03*
X0321300Y0028800D03*
X0378800Y0028800D03*
X0393800Y0028800D03*
X0453800Y0028800D03*
X0468800Y0028800D03*
X0531300Y0028800D03*
X0546300Y0028800D03*
X0603800Y0028800D03*
X0618800Y0028800D03*
X0676300Y0028800D03*
X0691300Y0028800D03*
X0173800Y0028800D03*
X0158800Y0028800D03*
X0201300Y0213741D03*
X0226300Y0216300D03*
X0236300Y0216300D03*
X0266300Y0223583D03*
X0276300Y0213741D03*
X0298800Y0218800D03*
X0308800Y0218800D03*
X0341300Y0223583D03*
X0351300Y0213741D03*
X0373800Y0216300D03*
X0383800Y0216300D03*
X0416300Y0223583D03*
X0426300Y0213741D03*
X0448800Y0216300D03*
X0458800Y0216300D03*
X0491300Y0223583D03*
X0501300Y0213741D03*
X0526300Y0213800D03*
X0536300Y0213800D03*
X0568800Y0223583D03*
X0578800Y0213741D03*
X0598800Y0218800D03*
X0608800Y0218800D03*
X0643800Y0223583D03*
X0653800Y0213741D03*
X0673800Y0213800D03*
X0683800Y0213800D03*
X0718800Y0223583D03*
X0728800Y0213741D03*
X0708800Y0243800D03*
X0698800Y0243800D03*
X0683800Y0243800D03*
X0673800Y0243800D03*
X0638800Y0243800D03*
X0628800Y0243800D03*
X0613800Y0243800D03*
X0603800Y0243800D03*
X0566300Y0243800D03*
X0556300Y0243800D03*
X0541300Y0243800D03*
X0531300Y0243800D03*
X0488800Y0243800D03*
X0478800Y0243800D03*
X0463800Y0243800D03*
X0453800Y0243800D03*
X0413800Y0243800D03*
X0403800Y0243800D03*
X0388800Y0243800D03*
X0378800Y0243800D03*
X0341300Y0243800D03*
X0331300Y0243800D03*
X0316300Y0243800D03*
X0306300Y0243800D03*
X0268800Y0243800D03*
X0258800Y0243800D03*
X0243800Y0243800D03*
X0233800Y0243800D03*
X0193800Y0243800D03*
X0183800Y0243800D03*
X0168800Y0243800D03*
X0158800Y0243800D03*
X0191300Y0223583D03*
X0163800Y0218800D03*
X0153800Y0218800D03*
X0101300Y0236300D03*
D15*
X0086300Y0216300D03*
X0086300Y0206300D03*
X0086300Y0196300D03*
X0086300Y0186300D03*
X0086300Y0176300D03*
X0086300Y0166300D03*
X0086300Y0156300D03*
X0086300Y0146300D03*
X0116300Y0146300D03*
X0116300Y0156300D03*
X0116300Y0166300D03*
X0116300Y0176300D03*
X0116300Y0186300D03*
X0116300Y0196300D03*
X0116300Y0206300D03*
X0116300Y0216300D03*
X0116300Y0106300D03*
X0116300Y0096300D03*
X0116300Y0086300D03*
X0116300Y0076300D03*
X0116300Y0066300D03*
X0116300Y0056300D03*
X0116300Y0046300D03*
X0116300Y0036300D03*
X0086300Y0036300D03*
X0086300Y0046300D03*
X0086300Y0056300D03*
X0086300Y0066300D03*
X0086300Y0076300D03*
X0086300Y0086300D03*
X0086300Y0096300D03*
X0086300Y0106300D03*
D16*
X0153800Y0121200D02*
X0153800Y0126400D01*
X0163800Y0126400D02*
X0163800Y0121200D01*
X0173800Y0121200D02*
X0173800Y0126400D01*
X0183800Y0126400D02*
X0183800Y0121200D01*
X0193800Y0121200D02*
X0193800Y0126400D01*
X0203800Y0126400D02*
X0203800Y0121200D01*
X0228800Y0121200D02*
X0228800Y0126400D01*
X0238800Y0126400D02*
X0238800Y0121200D01*
X0248800Y0121200D02*
X0248800Y0126400D01*
X0258800Y0126400D02*
X0258800Y0121200D01*
X0268800Y0121200D02*
X0268800Y0126400D01*
X0278800Y0126400D02*
X0278800Y0121200D01*
X0301300Y0121200D02*
X0301300Y0126400D01*
X0311300Y0126400D02*
X0311300Y0121200D01*
X0321300Y0121200D02*
X0321300Y0126400D01*
X0331300Y0126400D02*
X0331300Y0121200D01*
X0341300Y0121200D02*
X0341300Y0126400D01*
X0351300Y0126400D02*
X0351300Y0121200D01*
X0373800Y0121200D02*
X0373800Y0126400D01*
X0383800Y0126400D02*
X0383800Y0121200D01*
X0393800Y0121200D02*
X0393800Y0126400D01*
X0403800Y0126400D02*
X0403800Y0121200D01*
X0413800Y0121200D02*
X0413800Y0126400D01*
X0423800Y0126400D02*
X0423800Y0121200D01*
X0448800Y0121200D02*
X0448800Y0126400D01*
X0458800Y0126400D02*
X0458800Y0121200D01*
X0468800Y0121200D02*
X0468800Y0126400D01*
X0478800Y0126400D02*
X0478800Y0121200D01*
X0488800Y0121200D02*
X0488800Y0126400D01*
X0498800Y0126400D02*
X0498800Y0121200D01*
X0526300Y0121200D02*
X0526300Y0126400D01*
X0536300Y0126400D02*
X0536300Y0121200D01*
X0546300Y0121200D02*
X0546300Y0126400D01*
X0556300Y0126400D02*
X0556300Y0121200D01*
X0566300Y0121200D02*
X0566300Y0126400D01*
X0576300Y0126400D02*
X0576300Y0121200D01*
X0598800Y0121200D02*
X0598800Y0126400D01*
X0608800Y0126400D02*
X0608800Y0121200D01*
X0618800Y0121200D02*
X0618800Y0126400D01*
X0628800Y0126400D02*
X0628800Y0121200D01*
X0638800Y0121200D02*
X0638800Y0126400D01*
X0648800Y0126400D02*
X0648800Y0121200D01*
X0671300Y0121200D02*
X0671300Y0126400D01*
X0681300Y0126400D02*
X0681300Y0121200D01*
X0691300Y0121200D02*
X0691300Y0126400D01*
X0701300Y0126400D02*
X0701300Y0121200D01*
X0711300Y0121200D02*
X0711300Y0126400D01*
X0721300Y0126400D02*
X0721300Y0121200D01*
X0688800Y0191200D02*
X0688800Y0196400D01*
X0678800Y0196400D02*
X0678800Y0191200D01*
X0668800Y0191200D02*
X0668800Y0196400D01*
X0616300Y0196400D02*
X0616300Y0191200D01*
X0606300Y0191200D02*
X0606300Y0196400D01*
X0596300Y0196400D02*
X0596300Y0191200D01*
X0541300Y0191200D02*
X0541300Y0196400D01*
X0531300Y0196400D02*
X0531300Y0191200D01*
X0521300Y0191200D02*
X0521300Y0196400D01*
X0466300Y0196400D02*
X0466300Y0191200D01*
X0456300Y0191200D02*
X0456300Y0196400D01*
X0446300Y0196400D02*
X0446300Y0191200D01*
X0391300Y0191200D02*
X0391300Y0196400D01*
X0381300Y0196400D02*
X0381300Y0191200D01*
X0371300Y0191200D02*
X0371300Y0196400D01*
X0316300Y0198900D02*
X0316300Y0193700D01*
X0306300Y0193700D02*
X0306300Y0198900D01*
X0296300Y0198900D02*
X0296300Y0193700D01*
X0238800Y0193700D02*
X0238800Y0198900D01*
X0228800Y0198900D02*
X0228800Y0193700D01*
X0218800Y0193700D02*
X0218800Y0198900D01*
X0168800Y0193900D02*
X0168800Y0188700D01*
X0158800Y0188700D02*
X0158800Y0193900D01*
X0148800Y0193900D02*
X0148800Y0188700D01*
D17*
X0158800Y0176300D03*
X0153800Y0168800D03*
X0163800Y0168800D03*
X0231300Y0171300D03*
X0241300Y0171300D03*
X0236300Y0178800D03*
X0301300Y0171300D03*
X0311300Y0171300D03*
X0306300Y0178800D03*
X0376300Y0168800D03*
X0386300Y0168800D03*
X0381300Y0176300D03*
X0451300Y0171300D03*
X0461300Y0171300D03*
X0456300Y0178800D03*
X0526300Y0168800D03*
X0536300Y0168800D03*
X0531300Y0176300D03*
X0601300Y0168800D03*
X0611300Y0168800D03*
X0606300Y0176300D03*
X0673800Y0168800D03*
X0683800Y0168800D03*
X0678800Y0176300D03*
X0681300Y0106300D03*
X0676300Y0098800D03*
X0686300Y0098800D03*
X0706300Y0098800D03*
X0716300Y0098800D03*
X0711300Y0106300D03*
X0643800Y0098800D03*
X0633800Y0098800D03*
X0638800Y0106300D03*
X0613800Y0098800D03*
X0603800Y0098800D03*
X0608800Y0106300D03*
X0571300Y0098800D03*
X0561300Y0098800D03*
X0566300Y0106300D03*
X0541300Y0098800D03*
X0531300Y0098800D03*
X0536300Y0106300D03*
X0493800Y0098800D03*
X0483800Y0098800D03*
X0463800Y0098800D03*
X0453800Y0098800D03*
X0458800Y0106300D03*
X0488800Y0106300D03*
X0418800Y0098800D03*
X0408800Y0098800D03*
X0388800Y0098800D03*
X0378800Y0098800D03*
X0383800Y0106300D03*
X0413800Y0106300D03*
X0346300Y0098800D03*
X0336300Y0098800D03*
X0341300Y0106300D03*
X0316300Y0098800D03*
X0306300Y0098800D03*
X0311300Y0106300D03*
X0273800Y0098800D03*
X0263800Y0098800D03*
X0268800Y0106300D03*
X0243800Y0098800D03*
X0233800Y0098800D03*
X0238800Y0106300D03*
X0198800Y0098800D03*
X0188800Y0098800D03*
X0193800Y0106300D03*
X0168800Y0098800D03*
X0158800Y0098800D03*
X0163800Y0106300D03*
D18*
X0213800Y0098800D03*
X0288800Y0098800D03*
X0361300Y0098800D03*
X0433800Y0098800D03*
X0508800Y0098800D03*
X0586300Y0098800D03*
X0658800Y0098800D03*
X0731300Y0098800D03*
X0731300Y0128800D03*
X0731300Y0141300D03*
X0701300Y0141300D03*
X0658800Y0141300D03*
X0628800Y0141300D03*
X0658800Y0128800D03*
X0588800Y0143800D03*
X0558800Y0143800D03*
X0586300Y0128800D03*
X0511300Y0143800D03*
X0481300Y0143800D03*
X0508800Y0128800D03*
X0436300Y0143800D03*
X0406300Y0143800D03*
X0433800Y0128800D03*
X0363800Y0143800D03*
X0333800Y0143800D03*
X0291300Y0143800D03*
X0261300Y0143800D03*
X0288800Y0128800D03*
X0216300Y0143800D03*
X0186300Y0143800D03*
X0213800Y0128800D03*
X0361300Y0128800D03*
X0363800Y0231300D03*
X0393800Y0231300D03*
X0438800Y0233800D03*
X0468800Y0233800D03*
X0516300Y0231300D03*
X0546300Y0231300D03*
X0591300Y0231300D03*
X0621300Y0231300D03*
X0666300Y0231300D03*
X0696300Y0231300D03*
X0318800Y0233800D03*
X0288800Y0233800D03*
X0243800Y0231300D03*
X0213800Y0231300D03*
X0168800Y0231300D03*
X0138800Y0231300D03*
D19*
X0181300Y0213741D03*
X0256300Y0213741D03*
X0331300Y0213741D03*
X0406300Y0213741D03*
X0481300Y0213741D03*
X0558800Y0213741D03*
X0633800Y0213741D03*
X0708800Y0213741D03*
X0706300Y0168741D03*
X0633800Y0168741D03*
X0561300Y0168741D03*
X0486300Y0168741D03*
X0411300Y0168741D03*
X0331300Y0171241D03*
X0261300Y0168741D03*
X0191300Y0168741D03*
D20*
X0116300Y0123800D03*
X0093800Y0021300D03*
M02*
