M48
;GenerationSoftware,Autodesk,EAGLE,9.6.2*%
;CreationDate,2021-12-08T17:49:17Z*%
FMAT,2
ICI,OFF
METRIC,TZ,000.000
T6C0.350
T5C0.813
T4C0.900
T3C1.016
T2C2.997
T1C3.600
%
G90
M71
T1
X15875Y53340
T2
X9780Y10700
X5080Y7700
X5080Y13700
T3
X125730Y42490
X128270Y39990
X123190Y39990
X88900Y40625
X86360Y43125
X83820Y40625
X12573Y41910
X15367Y41910
X12573Y38100
X15367Y38100
X15240Y13970
X15240Y16510
X15240Y19050
X15240Y21590
X25400Y29210
X25400Y57150
X6985Y38100
X6985Y40640
X6985Y43180
X6985Y45720
X71120Y39990
X68580Y42490
X66040Y39990
X53340Y39990
X50800Y42490
X48260Y39990
X109220Y39990
X106680Y42490
X104140Y39990
X147320Y39990
X144780Y42490
X142240Y39990
X165735Y39990
X163195Y42490
X160655Y39990
X184150Y39990
X181610Y42490
X179070Y39990
X50800Y51420
X48260Y53920
X45720Y51420
X43815Y4445
X40005Y4445
X42545Y59055
X40005Y59055
X48895Y59055
X46355Y59055
X69850Y51420
X67310Y53920
X64770Y51420
X62865Y4445
X59055Y4445
X61595Y59055
X59055Y59055
X67945Y59055
X65405Y59055
X2540Y19050
X2540Y21590
X5080Y19050
X5080Y21590
X7620Y19050
X7620Y21590
X2540Y27305
X2540Y29845
X5080Y27305
X5080Y29845
X7620Y27305
X7620Y29845
X88900Y51420
X86360Y53920
X83820Y51420
X81280Y4445
X77470Y4445
X80010Y59055
X77470Y59055
X86360Y59055
X83820Y59055
X177165Y59055
X179705Y59055
X170815Y59055
X173355Y59055
X107950Y51420
X105410Y53920
X102870Y51420
X99695Y4445
X171450Y4445
X95885Y4445
X98425Y59055
X95885Y59055
X104775Y59055
X102235Y59055
X127000Y51420
X124460Y53920
X121920Y51420
X175260Y4445
X118745Y4445
X114935Y4445
X117475Y59055
X114935Y59055
X123825Y59055
X121285Y59055
X146685Y51420
X144145Y53920
X141605Y51420
X138430Y4445
X134620Y4445
X179705Y51420
X182245Y53920
X184785Y51420
X137160Y59055
X134620Y59055
X143510Y59055
X140970Y59055
X165735Y51420
X163195Y53920
X160655Y51420
X156845Y4445
X153035Y4445
X159385Y59055
X161925Y59055
X153035Y59055
X155575Y59055
T4
X159385Y33020
X167005Y33020
X167005Y22225
X167005Y29845
X34925Y55880
X61595Y55880
X53975Y55880
X80645Y56515
X73025Y56515
X99695Y55880
X92075Y55880
X118745Y56515
X111125Y56515
X138430Y55880
X130810Y55880
X157480Y55880
X149860Y55880
X151765Y15875
X159385Y15875
X167005Y18415
X167005Y10795
X163195Y10795
X163195Y18415
X151765Y12065
X159385Y12065
X176530Y55880
X168910Y55880
X80645Y34290
X78105Y34290
X62230Y34290
X59690Y34290
X41910Y34925
X39370Y34925
X99060Y34290
X96520Y34290
X117475Y34290
X114935Y34290
X137160Y34290
X134620Y34290
X155575Y33655
X153035Y33655
X141605Y33655
X149225Y33655
X148590Y22225
X148590Y29845
X177800Y12065
X171450Y33655
X173990Y33655
X128905Y10795
X12740Y5080
X17740Y5080
X12740Y29845
X17740Y29845
X2540Y33655
X170180Y12065
X10160Y33655
X2540Y36195
X2540Y43815
X133350Y15875
X140970Y15875
X148590Y18415
X148590Y10795
X144780Y10795
X144780Y18415
X133350Y12065
X140970Y12065
X181610Y18415
X181610Y10795
X185420Y10795
X46355Y12065
X38735Y12065
X50165Y18415
X50165Y10795
X53975Y10795
X53975Y18415
X46355Y15875
X38735Y15875
X53975Y29845
X185420Y18415
X177800Y15875
X170180Y15875
X53975Y22225
X121920Y33655
X129540Y33655
X128905Y22225
X128905Y29845
X54610Y33655
X46990Y33655
X65405Y12065
X57785Y12065
X69215Y18415
X69215Y10795
X73025Y10795
X73025Y18415
X65405Y15875
X57785Y15875
X73025Y29845
X73025Y22225
X73660Y33655
X113665Y15875
X121285Y15875
X128905Y18415
X42545Y55880
X125095Y10795
X125095Y18415
X113665Y12065
X121285Y12065
X66040Y33655
X83820Y12065
X76200Y12065
X87630Y18415
X87630Y10795
X91440Y10795
X91440Y18415
X83820Y15875
X76200Y15875
X91440Y29845
X91440Y22225
X92075Y33655
X84455Y33655
X177800Y33020
X185420Y33020
X185420Y22225
X102870Y33655
X110490Y33655
X109855Y22225
X109855Y29845
X102235Y12065
X94615Y12065
X106045Y18415
X106045Y10795
X109855Y10795
X109855Y18415
X102235Y15875
X94615Y15875
X185420Y29845
T5
X104775Y28575
X95250Y40005
X96520Y41910
X97790Y40005
X107315Y28575
X102235Y28575
X97155Y28575
X99695Y28575
X94615Y28575
X97155Y52070
X94615Y52070
X170815Y51435
X173355Y51435
X170180Y28575
X175260Y28575
X74930Y46990
X80010Y46990
X77470Y46990
X80010Y22225
X78740Y24130
X77470Y22225
X87630Y22225
X86360Y24130
X85090Y22225
X179070Y22225
X180340Y24130
X181610Y22225
X171450Y22225
X172720Y28575
X103505Y22225
X104775Y24130
X106045Y22225
X172720Y24130
X75565Y52705
X78105Y52705
X76200Y28575
X81280Y28575
X78740Y28575
X83820Y28575
X88900Y28575
X86360Y28575
X173990Y22225
X76200Y40640
X77470Y42545
X78740Y40640
X95885Y22225
X97155Y24130
X98425Y22225
X96520Y46355
X99060Y46355
X93980Y46355
X177800Y28575
X182880Y28575
X172085Y46355
X174625Y46355
X169545Y46355
X55245Y46990
X60325Y46990
X57785Y46990
X61595Y22225
X60325Y24130
X59055Y22225
X69215Y22225
X67945Y24130
X66675Y22225
X21590Y34290
X21590Y36830
X21590Y39370
X21590Y41910
X180340Y28575
X116840Y40640
X115570Y42545
X114300Y40640
X21590Y44450
X57150Y52070
X59690Y52070
X57785Y28575
X62865Y28575
X60325Y28575
X65405Y28575
X70485Y28575
X67945Y28575
X21590Y46990
X58420Y40640
X59690Y42545
X60960Y40640
X170815Y40005
X123825Y28575
X126365Y28575
X121285Y28575
X116205Y28575
X118745Y28575
X113665Y28575
X116205Y52070
X21590Y49530
X21590Y52070
X29210Y52070
X37465Y45720
X42545Y45720
X40005Y45720
X42545Y22225
X41275Y24130
X40005Y22225
X50165Y22225
X48895Y24130
X47625Y22225
X29210Y49530
X29210Y46990
X29210Y44450
X29210Y41910
X113665Y52070
X172085Y41910
X173355Y40005
X122555Y22225
X29210Y39370
X38735Y52705
X41275Y52705
X37465Y28575
X42545Y28575
X40005Y28575
X46355Y28575
X51435Y28575
X48895Y28575
X29210Y36830
X38735Y40005
X40005Y41910
X41275Y40005
X123825Y24130
X125095Y22225
X114935Y22225
X116205Y24130
X117475Y22225
X115570Y46355
X118110Y46355
X113030Y46355
X29210Y34290
X21590Y6350
X21590Y8890
X21590Y11430
X21590Y13970
X21590Y16510
X21590Y19050
X21590Y21590
X21590Y24130
X29210Y24130
X29210Y21590
X29210Y19050
X29210Y16510
X29210Y13970
X29210Y11430
X29210Y8890
X29210Y6350
X135890Y40005
X134620Y41910
X133350Y40005
X143510Y28575
X146050Y28575
X140970Y28575
X135890Y28575
X138430Y28575
X160655Y22225
X133350Y28575
X135890Y51435
X133350Y51435
X151130Y46355
X156210Y46355
X153670Y46355
X155575Y22225
X142240Y22225
X143510Y24130
X144780Y22225
X134620Y22225
X135890Y24130
X137160Y22225
X134620Y46355
X137160Y46355
X132080Y46355
X154305Y24130
X153035Y22225
X163195Y22225
X154940Y40005
X153670Y41910
X152400Y40005
X161925Y24130
X161925Y28575
X164465Y28575
X159385Y28575
X154305Y28575
X156845Y28575
X151765Y28575
X154305Y52705
X151765Y52705
T6
X23495Y2540
X29210Y28575
M30